<svg preserveAspectRatio="none" width="100%" height="100%" overflow="visible" style="display: block;" viewBox="0 0 76 76" fill="none" xmlns="http://www.w3.org/2000/svg">
<g id="Union" filter="url(#filter0_i_16_454)">
<path d="M37.8584 0C41.144 0 43.8076 2.66365 43.8076 5.94922V31.9092H69.7666C73.0521 31.9093 75.7158 34.5729 75.7158 37.8584C75.7156 41.1437 73.0519 43.8065 69.7666 43.8066H43.8076V69.7666C43.8076 73.0522 41.144 75.7158 37.8584 75.7158C34.5729 75.7158 31.9092 73.0521 31.9092 69.7666V43.8066H5.94922C2.66378 43.8066 0.000237223 41.1438 0 37.8584C-1.46574e-07 34.5728 2.66363 31.9092 5.94922 31.9092H31.9092V5.94922C31.9092 2.66368 34.5729 6.28763e-05 37.8584 0Z" fill="var(--fill-0, #D9D9D9)"/>
</g>
<defs>
<filter id="filter0_i_16_454" x="0" y="0" width="75.7158" height="80.0424" filterUnits="userSpaceOnUse" color-interpolation-filters="sRGB">
<feFlood flood-opacity="0" result="BackgroundImageFix"/>
<feBlend mode="normal" in="SourceGraphic" in2="BackgroundImageFix" result="shape"/>
<feColorMatrix in="SourceAlpha" type="matrix" values="0 0 0 0 0 0 0 0 0 0 0 0 0 0 0 0 0 0 127 0" result="hardAlpha"/>
<feOffset dy="4.3266"/>
<feGaussianBlur stdDeviation="2.1633"/>
<feComposite in2="hardAlpha" operator="arithmetic" k2="-1" k3="1"/>
<feColorMatrix type="matrix" values="0 0 0 0 1 0 0 0 0 1 0 0 0 0 1 0 0 0 0.22 0"/>
<feBlend mode="normal" in2="shape" result="effect1_innerShadow_16_454"/>
</filter>
</defs>
</svg>
