<svg preserveAspectRatio="none" width="100%" height="100%" overflow="visible" style="display: block;" viewBox="0 0 18 15" fill="none" xmlns="http://www.w3.org/2000/svg">
<path id="Polygon 3" d="M3.80385 6C6.11325 2 7.26795 7.88735e-07 9 3.90482e-07C9 3.90482e-07 9 3.90482e-07 9 3.90482e-07C10.7321 8.54495e-07 11.8868 2 14.1962 6V6C16.5056 10 17.6603 12 16.7942 13.5C16.7942 13.5 16.7942 13.5 16.7942 13.5C15.9282 15 13.6188 15 9 15V15C4.3812 15 2.0718 15 1.20577 13.5C1.20577 13.5 1.20577 13.5 1.20577 13.5C0.339747 12 1.49445 10 3.80385 6V6Z" fill="var(--fill-0, #9CD9A2)"/>
</svg>
