<svg preserveAspectRatio="none" width="100%" height="100%" overflow="visible" style="display: block;" viewBox="0 0 144 174" fill="none" xmlns="http://www.w3.org/2000/svg">
<g id="Group 3" filter="url(#filter0_d_16_458)">
<path id="Union" d="M60.417 0C68.9662 7.2376e-10 73.2405 0.000319416 75.8965 2.65625C78.5524 5.3122 78.5527 9.58654 78.5527 18.1357V18.5801C78.5796 18.7001 78.6054 18.822 78.6348 18.9443C78.855 19.8618 79.1411 20.8082 79.5029 21.625C79.8729 22.46 80.2806 23.0638 80.6943 23.3955C81.103 23.7231 81.9315 24.0502 83.1133 24.3252C84.2531 24.5904 85.5797 24.7765 86.8574 24.9062C88.131 25.0356 89.3353 25.1071 90.2217 25.1455C90.6638 25.1646 91.0258 25.1754 91.2764 25.1816C91.4013 25.1847 91.499 25.1864 91.5645 25.1875C91.597 25.1881 91.6224 25.1883 91.6387 25.1885C91.6467 25.1886 91.6534 25.1894 91.6572 25.1895H120.87C129.42 25.1895 133.695 25.1897 136.351 27.8457C139.006 30.5017 139.007 34.7762 139.007 43.3252V147.105C139.007 155.655 139.007 159.93 136.351 162.586C133.695 165.242 129.419 165.241 120.87 165.241H23.1357C14.5863 165.241 10.3113 165.242 7.65527 162.586C4.9993 159.93 5 155.655 5 147.105L5 18.1357C5 9.58665 5.0004 5.3122 7.65625 2.65625C10.3122 0.000253837 14.5872 0 23.1367 0L60.417 0ZM80.3076 24.3564C80.3292 24.3704 80.3527 24.3818 80.375 24.3955C80.3076 24.3541 80.2422 24.3138 80.1816 24.2705L80.3076 24.3564Z" fill="var(--fill-0, white)"/>
</g>
<defs>
<filter id="filter0_d_16_458" x="0.673398" y="0" width="142.66" height="173.894" filterUnits="userSpaceOnUse" color-interpolation-filters="sRGB">
<feFlood flood-opacity="0" result="BackgroundImageFix"/>
<feColorMatrix in="SourceAlpha" type="matrix" values="0 0 0 0 0 0 0 0 0 0 0 0 0 0 0 0 0 0 127 0" result="hardAlpha"/>
<feOffset dy="4.3266"/>
<feGaussianBlur stdDeviation="2.1633"/>
<feComposite in2="hardAlpha" operator="out"/>
<feColorMatrix type="matrix" values="0 0 0 0 0 0 0 0 0 0 0 0 0 0 0 0 0 0 0.07 0"/>
<feBlend mode="normal" in2="BackgroundImageFix" result="effect1_dropShadow_16_458"/>
<feBlend mode="normal" in="SourceGraphic" in2="effect1_dropShadow_16_458" result="shape"/>
</filter>
</defs>
</svg>
