<svg width="17" height="16" viewBox="0 0 17 16" fill="none" xmlns="http://www.w3.org/2000/svg">
<path d="M14.6103 0.206716C14.2394 -0.105873 13.6853 -0.0586041 13.3727 0.312303C13.0602 0.683211 13.1074 1.23729 13.4783 1.54988C14.4447 2.36429 14.8927 3.3957 14.8927 4.39143C14.8927 5.38717 14.4447 6.41858 13.4783 7.23294C13.1074 7.54561 13.0602 8.09963 13.3727 8.47053C13.6853 8.84143 14.2394 8.88877 14.6103 8.57619C15.9462 7.45032 16.6493 5.93871 16.6493 4.39143C16.6493 2.84416 15.9462 1.33257 14.6103 0.206716Z" fill="#F3DACD"/>
<path d="M12.8239 1.71236C12.453 1.39977 11.899 1.44704 11.5863 1.81795C11.2737 2.18885 11.3211 2.74294 11.692 3.05553C12.1649 3.45415 12.3663 3.94064 12.3663 4.39145C12.3663 4.84225 12.1649 5.32873 11.692 5.72737C11.3211 6.03996 11.2737 6.59405 11.5863 6.96495C11.899 7.33589 12.453 7.38314 12.8239 7.07056C13.6664 6.36045 14.1229 5.39379 14.1229 4.39145C14.1229 3.38911 13.6664 2.42244 12.8239 1.71236Z" fill="#F3DACD"/>
<path d="M1.71826 4.39144C1.71826 1.96614 3.68437 3.05176e-05 6.10968 3.05176e-05C8.53497 3.05176e-05 10.5011 1.96614 10.5011 4.39144C10.5011 6.81675 8.53497 8.78286 6.10968 8.78286C3.68437 8.78286 1.71826 6.81675 1.71826 4.39144Z" fill="#F3DACD"/>
<path d="M0 15.2405C0 11.8849 2.72024 9.16469 6.07583 9.16469C9.43144 9.16469 12.1517 11.8849 12.1517 15.2405C12.1517 15.66 11.8116 16 11.3922 16H0.759479C0.340034 16 0 15.66 0 15.2405Z" fill="#F3DACD"/>
</svg>
