<svg preserveAspectRatio="none" width="100%" height="100%" overflow="visible" style="display: block;" viewBox="0 0 134 124" fill="none" xmlns="http://www.w3.org/2000/svg">
<g id="Frame 3" filter="url(#filter0_di_25_557)">
<rect x="46" y="16" width="42" height="32" rx="6" fill="url(#paint0_linear_25_557)" shape-rendering="crispEdges"/>
<rect x="46.5" y="16.5" width="41" height="31" rx="5.5" stroke="var(--stroke-0, #FFC4C4)" shape-rendering="crispEdges"/>
<path id="Vector" d="M74.9412 23H59.0588C58.4741 23 58 23.4741 58 24.0588V39.9412C58 40.5261 58.4741 41 59.0588 41H74.9412C75.5261 41 76 40.5261 76 39.9412V24.0588C76 23.4741 75.5261 23 74.9412 23ZM71.3689 26.6936C72.1347 26.6936 72.7577 27.3164 72.7577 28.0821C72.7577 28.8477 72.1349 29.4707 71.3689 29.4707C70.6034 29.4707 69.9804 28.8479 69.9804 28.0821C69.9804 27.3164 70.6034 26.6936 71.3689 26.6936ZM73.4444 37.2539C73.4254 37.2863 73.3906 37.3064 73.3529 37.3064H60.6471C60.6094 37.3064 60.5744 37.2863 60.5556 37.2537C60.5367 37.2213 60.5365 37.1808 60.5552 37.1482L64.1105 30.8959C64.1289 30.8632 64.1634 30.8429 64.2011 30.8423C64.2399 30.8493 64.2737 30.8613 64.2932 30.8935L65.5587 32.99L68.3733 28.4671C68.3932 28.4354 68.4277 28.4163 68.4656 28.4172C68.5031 28.418 68.5372 28.4385 68.5556 28.4709L73.4457 37.1486C73.4635 37.1812 73.4633 37.2213 73.4444 37.2539Z" fill="var(--fill-0, white)"/>
</g>
<defs>
<filter id="filter0_di_25_557" x="0.599998" y="0.599998" width="132.8" height="122.8" filterUnits="userSpaceOnUse" color-interpolation-filters="sRGB">
<feFlood flood-opacity="0" result="BackgroundImageFix"/>
<feColorMatrix in="SourceAlpha" type="matrix" values="0 0 0 0 0 0 0 0 0 0 0 0 0 0 0 0 0 0 127 0" result="hardAlpha"/>
<feOffset dy="30"/>
<feGaussianBlur stdDeviation="22.7"/>
<feComposite in2="hardAlpha" operator="out"/>
<feColorMatrix type="matrix" values="0 0 0 0 0.951435 0 0 0 0 0.596534 0 0 0 0 0.507808 0 0 0 0.11 0"/>
<feBlend mode="normal" in2="BackgroundImageFix" result="effect1_dropShadow_25_557"/>
<feBlend mode="normal" in="SourceGraphic" in2="effect1_dropShadow_25_557" result="shape"/>
<feColorMatrix in="SourceAlpha" type="matrix" values="0 0 0 0 0 0 0 0 0 0 0 0 0 0 0 0 0 0 127 0" result="hardAlpha"/>
<feOffset dx="2" dy="5"/>
<feGaussianBlur stdDeviation="3.4"/>
<feComposite in2="hardAlpha" operator="arithmetic" k2="-1" k3="1"/>
<feColorMatrix type="matrix" values="0 0 0 0 1 0 0 0 0 1 0 0 0 0 1 0 0 0 0.25 0"/>
<feBlend mode="normal" in2="shape" result="effect2_innerShadow_25_557"/>
</filter>
<linearGradient id="paint0_linear_25_557" x1="46" y1="32" x2="88" y2="32" gradientUnits="userSpaceOnUse">
<stop stop-color="#ED6A48" stop-opacity="0.45"/>
<stop offset="1" stop-color="#F39881" stop-opacity="0.84"/>
</linearGradient>
</defs>
</svg>
